<?xml version="1.0" encoding="UTF-8"?>
<!DOCTYPE svg PUBLIC "-//W3C//DTD SVG 1.1//EN" "http://www.w3.org/Graphics/SVG/1.1/DTD/svg11.dtd">
<!-- Creator: CorelDRAW 2020 (64 Bit) -->
<svg xmlns="http://www.w3.org/2000/svg" xml:space="preserve" width="1444px" height="342px" version="1.1" style="shape-rendering:geometricPrecision; text-rendering:geometricPrecision; image-rendering:optimizeQuality; fill-rule:evenodd; clip-rule:evenodd"
viewBox="0 0 266.09 63"
 xmlns:xlink="http://www.w3.org/1999/xlink"
 xmlns:xodm="http://www.corel.com/coreldraw/odm/2003">
 <defs>
  <style type="text/css">
   <![CDATA[
    .fil2 {fill:#ffffff;fill-rule:nonzero}
    .fil0 {fill:#ffffff;fill-rule:nonzero}
    .fil3 {fill:#00fd13;fill-rule:nonzero}
    .fil1 {fill:#00fd13;fill-rule:nonzero}
   ]]>
  </style>
 </defs>
 <g id="Camada_x0020_1">
  <metadata id="CorelCorpID_0Corel-Layer"/>
  <path class="fil0" d="M36.42 54.78c0.94,0.38 1.4,1.45 1.02,2.39 -0.38,0.94 -1.45,1.39 -2.39,1.01 -6.67,-2.7 -13.15,-6.53 -19.07,-11.36 -5.74,-4.7 -11.03,-10.38 -15.65,-16.97 -0.45,-0.65 -0.43,-1.49 0,-2.11 0.83,-1.19 7.67,-7.84 18.51,-14.06 6.08,-3.49 13.46,-6.91 21.84,-9.25 0.98,-0.27 2,0.3 2.27,1.28 0.27,0.98 -0.31,1.99 -1.29,2.27 -8.03,2.24 -15.13,5.53 -20.98,8.89 -8.59,4.93 -14.38,9.91 -16.5,12.04 4.22,5.82 8.98,10.85 14.13,15.06 3.96,3.24 8.14,5.98 12.47,8.22 4.97,-8.7 11.9,-19.21 18.04,-27.38 5.59,-7.43 11.26,-14.17 16.26,-19.3 -2.08,-0.18 -4.2,-0.25 -6.35,-0.17 -0.81,0.03 -1.7,0.08 -2.64,0.15 -0.9,0.07 -1.8,0.16 -2.68,0.26 -1.01,0.11 -1.92,-0.61 -2.04,-1.62 -0.11,-1.01 0.61,-1.92 1.62,-2.04 0.94,-0.11 1.88,-0.2 2.83,-0.27 0.85,-0.07 1.79,-0.12 2.8,-0.15 14.91,-0.52 28.11,5.12 37.98,11.32 9.82,6.17 16.36,12.89 17.96,14.59 0.58,0.62 0.65,1.54 0.22,2.23 -4.52,7.26 -9.71,13.28 -15.36,18.11 -5.96,5.09 -12.43,8.85 -19.16,11.34 -0.95,0.35 -2.01,-0.14 -2.36,-1.09 -0.35,-0.95 0.14,-2.01 1.1,-2.36 6.33,-2.35 12.41,-5.89 18.03,-10.68 5.05,-4.32 9.73,-9.66 13.86,-16.06 -2.22,-2.25 -7.1,-6.88 -13.93,-11.46l0.01 0.02c1.9,4.1 1.45,8.3 -0.71,12.1 -2.05,3.61 -5.66,6.82 -10.23,9.16 -10.26,5.26 -25.57,6.21 -38.87,-2.82 -0.43,-0.29 -0.87,-0.62 -1.28,-0.93 -3.97,5.72 -8.47,12.86 -11.79,18.65 0.75,0.33 1.58,0.68 2.33,0.99zm11.57 -22.63c1.12,0.83 2.28,1.61 3.49,2.3 9.93,5.75 22.6,6.44 32.88,1.18 3.94,-2.02 7.01,-4.73 8.7,-7.71 1.58,-2.78 1.93,-5.82 0.58,-8.75 -1.38,-2.95 -4.31,-6.05 -9.39,-8.6 -4.5,-1.97 -9.41,-3.57 -14.63,-4.47 -5.31,5.19 -11.67,12.68 -17.86,20.91 -1.26,1.68 -2.52,3.4 -3.77,5.14z"/>
  <path class="fil1" d="M67.35 58.76c1,-0.14 1.93,0.56 2.07,1.57 0.14,1 -0.56,1.93 -1.57,2.07 -3.36,0.48 -6.76,0.67 -10.17,0.57 -3.45,-0.09 -6.88,-0.47 -10.27,-1.13 -1,-0.19 -1.65,-1.15 -1.46,-2.15 0.19,-0.99 1.15,-1.65 2.15,-1.46 3.22,0.63 6.45,0.98 9.66,1.07 3.2,0.09 6.4,-0.09 9.59,-0.54z"/>
  <path class="fil2" d="M123.88 30.3c-0.52,0 -0.95,-0.18 -1.31,-0.53 -0.35,-0.36 -0.53,-0.79 -0.53,-1.31l0 -25.06c0,-0.52 0.18,-0.96 0.53,-1.33 0.36,-0.37 0.79,-0.56 1.31,-0.56l9.34 0c2.59,0 4.71,0.44 6.34,1.32 1.64,0.87 2.82,1.99 3.53,3.35 0.71,1.37 1.06,2.84 1.06,4.43 0,1.58 -0.35,3.05 -1.06,4.42 -0.71,1.36 -1.89,2.48 -3.53,3.36 -1.63,0.87 -3.75,1.31 -6.34,1.31l-7.46 0 0 8.76c0,0.52 -0.18,0.95 -0.55,1.31 -0.37,0.35 -0.81,0.53 -1.33,0.53zm8.97 -14.13c2.78,0 4.74,-0.53 5.87,-1.59 1.14,-1.07 1.7,-2.39 1.7,-3.97 0,-1.59 -0.56,-2.91 -1.7,-3.98 -1.13,-1.06 -3.09,-1.59 -5.87,-1.59l-7.09 0 0 11.13 7.09 0z"/>
  <path id="1" class="fil2" d="M157.58 30.51c-3.33,0 -5.93,-0.95 -7.8,-2.85 -1.87,-1.9 -2.8,-4.57 -2.8,-8.01 0,-1.93 0.35,-3.72 1.06,-5.36 0.71,-1.64 1.8,-2.96 3.28,-3.97 1.47,-1.01 3.29,-1.52 5.44,-1.52 2.02,0 3.77,0.47 5.24,1.42 1.48,0.94 2.6,2.19 3.36,3.76 0.77,1.57 1.15,3.29 1.15,5.14 0,0.52 -0.17,0.96 -0.51,1.31 -0.35,0.36 -0.8,0.53 -1.38,0.53l-13.88 0c0.22,1.92 0.93,3.4 2.13,4.47 1.2,1.06 2.88,1.6 5.04,1.6 1.14,0 2.15,-0.11 3.01,-0.33 0.86,-0.22 1.7,-0.53 2.52,-0.94 0.21,-0.11 0.46,-0.17 0.73,-0.17 0.44,0 0.82,0.15 1.15,0.45 0.33,0.3 0.49,0.68 0.49,1.15 0,0.6 -0.35,1.1 -1.06,1.51 -1.07,0.6 -2.12,1.05 -3.16,1.36 -1.03,0.3 -2.37,0.45 -4.01,0.45zm5.24 -12.58c-0.08,-1.33 -0.43,-2.45 -1.04,-3.35 -0.62,-0.9 -1.37,-1.57 -2.27,-1.99 -0.91,-0.42 -1.82,-0.63 -2.75,-0.63 -0.93,0 -1.84,0.21 -2.74,0.63 -0.9,0.42 -1.65,1.09 -2.25,1.99 -0.6,0.9 -0.95,2.02 -1.03,3.35l12.08 0z"/>
  <path id="2" class="fil2" d="M180.06 30.51c-1.69,0 -3.3,-0.43 -4.81,-1.29 -1.52,-0.86 -2.74,-2.12 -3.69,-3.77 -0.94,-1.65 -1.41,-3.58 -1.41,-5.8 0,-2.21 0.47,-4.14 1.41,-5.79 0.95,-1.65 2.17,-2.91 3.69,-3.77 1.51,-0.86 3.12,-1.29 4.81,-1.29 2.68,0 5.01,1.04 7,3.12l0 -10.04c0,-0.54 0.19,-0.99 0.56,-1.35 0.36,-0.35 0.81,-0.53 1.33,-0.53 0.52,0 0.95,0.18 1.31,0.55 0.35,0.37 0.53,0.81 0.53,1.33l0 26.58c0,0.52 -0.18,0.95 -0.53,1.31 -0.36,0.35 -0.79,0.53 -1.31,0.53 -0.52,0 -0.97,-0.18 -1.33,-0.53 -0.37,-0.36 -0.56,-0.79 -0.56,-1.31l0 -1.07c-1.99,2.08 -4.32,3.12 -7,3.12zm0.53 -3.48c1.26,0 2.44,-0.28 3.54,-0.84 1.11,-0.56 2.09,-1.31 2.93,-2.24l0 -8.59c-0.84,-0.93 -1.82,-1.68 -2.93,-2.24 -1.1,-0.56 -2.28,-0.84 -3.54,-0.84 -2.02,0 -3.64,0.65 -4.87,1.93 -1.23,1.28 -1.84,3.1 -1.84,5.44 0,2.35 0.61,4.17 1.84,5.45 1.23,1.28 2.85,1.93 4.87,1.93z"/>
  <path id="3" class="fil2" d="M199.1 30.3c-0.52,0 -0.95,-0.18 -1.31,-0.53 -0.35,-0.36 -0.53,-0.79 -0.53,-1.31l0 -17.57c0,-0.52 0.18,-0.96 0.53,-1.33 0.36,-0.37 0.79,-0.55 1.31,-0.55 0.52,0 0.96,0.18 1.33,0.55 0.37,0.37 0.55,0.81 0.55,1.33l0 1.76c1.92,-2.56 4.06,-3.85 6.43,-3.85l0.21 0c0.52,0 0.95,0.18 1.29,0.54 0.34,0.35 0.51,0.79 0.51,1.31 0,0.51 -0.18,0.94 -0.53,1.27 -0.36,0.32 -0.81,0.49 -1.35,0.49l-0.21 0c-1.31,0 -2.51,0.32 -3.6,0.96 -1.09,0.64 -2.01,1.52 -2.75,2.64l0 12.45c0,0.52 -0.18,0.95 -0.55,1.31 -0.37,0.35 -0.81,0.53 -1.33,0.53z"/>
  <path id="4" class="fil2" d="M221.54 30.51c-2.1,0 -3.94,-0.45 -5.53,-1.36 -1.58,-0.9 -2.8,-2.17 -3.66,-3.82 -0.86,-1.66 -1.29,-3.55 -1.29,-5.68 0,-2.12 0.43,-4.01 1.29,-5.67 0.86,-1.65 2.08,-2.92 3.66,-3.83 1.59,-0.9 3.43,-1.35 5.53,-1.35 2.07,0 3.9,0.45 5.49,1.35 1.58,0.91 2.81,2.18 3.68,3.83 0.88,1.66 1.31,3.55 1.31,5.67 0,2.13 -0.43,4.02 -1.31,5.68 -0.87,1.65 -2.1,2.92 -3.68,3.82 -1.59,0.91 -3.42,1.36 -5.49,1.36zm0 -3.4c1.12,0 2.19,-0.26 3.21,-0.78 1.03,-0.52 1.87,-1.34 2.54,-2.46 0.67,-1.12 1.01,-2.54 1.01,-4.26 0,-1.69 -0.34,-3.09 -1.01,-4.21 -0.67,-1.12 -1.51,-1.94 -2.54,-2.44 -1.02,-0.51 -2.09,-0.76 -3.21,-0.76 -1.15,0 -2.23,0.25 -3.26,0.76 -1.02,0.5 -1.86,1.32 -2.51,2.44 -0.66,1.12 -0.99,2.52 -0.99,4.21 0,1.72 0.33,3.14 0.99,4.26 0.65,1.12 1.49,1.94 2.51,2.46 1.03,0.52 2.11,0.78 3.26,0.78z"/>
  <path class="fil3" d="M123.88 62.77c-0.52,0 -0.95,-0.18 -1.31,-0.53 -0.35,-0.36 -0.53,-0.8 -0.53,-1.31l0 -25.06c0,-0.52 0.18,-0.97 0.53,-1.34 0.36,-0.36 0.79,-0.55 1.31,-0.55l9.54 0c3.71,0 6.5,0.77 8.36,2.3 1.85,1.52 2.78,3.53 2.78,6.01 0,1.64 -0.46,3.14 -1.37,4.49 -0.92,1.35 -2.25,2.33 -3.99,2.93 1.96,0.51 3.31,1.74 4.03,3.66 0.72,1.92 1.08,3.82 1.08,5.67l0 1.89c0,0.51 -0.17,0.95 -0.53,1.31 -0.35,0.35 -0.79,0.53 -1.31,0.53 -0.57,0 -1.03,-0.17 -1.37,-0.51 -0.34,-0.35 -0.51,-0.79 -0.51,-1.33l0 -1.23c0,-1.37 -0.13,-2.63 -0.37,-3.79 -0.25,-1.16 -0.83,-2.2 -1.76,-3.11 -0.93,-0.92 -2.34,-1.37 -4.22,-1.37l-8.48 0 0 9.5c0,0.51 -0.18,0.95 -0.55,1.31 -0.37,0.35 -0.81,0.53 -1.33,0.53zm9.3 -14.87c2.34,0 4.21,-0.46 5.59,-1.39 1.37,-0.93 2.06,-2.24 2.06,-3.93 0,-1.64 -0.59,-2.89 -1.78,-3.77 -1.19,-0.87 -3.21,-1.31 -6.08,-1.31l-7.21 0 0 10.4 7.42 0z"/>
  <path id="1" class="fil3" d="M152.22 37.42c-0.58,0 -1.07,-0.2 -1.48,-0.61 -0.41,-0.41 -0.61,-0.9 -0.61,-1.48l0 -0.16c0,-0.57 0.2,-1.07 0.61,-1.47 0.41,-0.41 0.9,-0.62 1.48,-0.62l0.24 0c0.58,0 1.07,0.21 1.48,0.62 0.41,0.4 0.61,0.9 0.61,1.47l0 0.16c0,0.58 -0.2,1.07 -0.61,1.48 -0.41,0.41 -0.9,0.61 -1.48,0.61l-0.24 0zm0.08 25.35c-0.52,0 -0.96,-0.18 -1.31,-0.53 -0.36,-0.36 -0.53,-0.8 -0.53,-1.31l0 -17.57c0,-0.52 0.17,-0.96 0.53,-1.33 0.35,-0.37 0.79,-0.55 1.31,-0.55 0.54,0 1,0.17 1.35,0.53 0.35,0.35 0.53,0.8 0.53,1.35l0 17.57c0,0.51 -0.18,0.95 -0.55,1.31 -0.37,0.35 -0.81,0.53 -1.33,0.53z"/>
  <path id="2" class="fil3" d="M170.32 62.97c-1.97,0 -3.79,-0.43 -5.45,-1.31 -1.67,-0.87 -3,-2.13 -3.99,-3.76 -1,-1.64 -1.5,-3.57 -1.5,-5.78 0,-2.21 0.5,-4.13 1.5,-5.77 0.99,-1.64 2.32,-2.9 3.99,-3.77 1.66,-0.87 3.48,-1.31 5.45,-1.31 1.44,0 2.69,0.18 3.74,0.55 1.05,0.37 2.03,0.84 2.93,1.42 0.55,0.35 0.82,0.83 0.82,1.43 0,0.41 -0.16,0.78 -0.47,1.13 -0.32,0.34 -0.68,0.51 -1.09,0.51 -0.3,0 -0.6,-0.08 -0.9,-0.25 -0.9,-0.46 -1.67,-0.8 -2.31,-1 -0.64,-0.21 -1.44,-0.31 -2.4,-0.31 -2.34,0 -4.19,0.68 -5.52,2.03 -1.34,1.35 -2.01,3.13 -2.01,5.34 0,2.21 0.67,3.99 2.01,5.35 1.33,1.35 3.18,2.02 5.52,2.02 0.96,0 1.76,-0.1 2.4,-0.31 0.64,-0.2 1.41,-0.53 2.31,-1 0.3,-0.16 0.6,-0.24 0.9,-0.24 0.41,0 0.77,0.17 1.09,0.51 0.31,0.34 0.47,0.71 0.47,1.12 0,0.6 -0.27,1.08 -0.82,1.44 -0.9,0.57 -1.88,1.04 -2.93,1.41 -1.05,0.37 -2.3,0.55 -3.74,0.55z"/>
  <path id="3" class="fil3" d="M187.8 62.97c-1.2,0 -2.31,-0.24 -3.34,-0.73 -1.02,-0.5 -1.83,-1.21 -2.43,-2.15 -0.6,-0.95 -0.9,-2.03 -0.9,-3.26 0,-2.02 0.79,-3.63 2.39,-4.83 1.6,-1.2 3.94,-1.8 7.02,-1.8l4.96 0 0 -0.33c0,-1.8 -0.45,-3.1 -1.33,-3.89 -0.89,-0.79 -2.28,-1.19 -4.16,-1.19 -1.04,0 -1.96,0.08 -2.76,0.25 -0.81,0.16 -1.7,0.41 -2.69,0.73 -0.21,0.06 -0.39,0.09 -0.53,0.09 -0.41,0 -0.76,-0.15 -1.06,-0.45 -0.3,-0.3 -0.45,-0.67 -0.45,-1.11 0,-0.74 0.35,-1.25 1.06,-1.56 2.32,-0.98 4.68,-1.47 7.09,-1.47 1.88,0 3.47,0.38 4.77,1.15 1.29,0.76 2.25,1.75 2.86,2.97 0.62,1.21 0.92,2.53 0.92,3.95l0 11.59c0,0.51 -0.18,0.95 -0.55,1.31 -0.37,0.35 -0.81,0.53 -1.33,0.53 -0.52,0 -0.95,-0.18 -1.31,-0.53 -0.35,-0.36 -0.53,-0.8 -0.53,-1.31l0 -1.07c-2.02,2.08 -4.59,3.11 -7.7,3.11zm1.39 -3.27c1.2,0 2.36,-0.3 3.48,-0.88 1.12,-0.59 2.06,-1.32 2.83,-2.19l0 -3.44 -4.47 0c-4.12,0 -6.18,1.07 -6.18,3.23 0,0.98 0.34,1.78 1,2.38 0.67,0.6 1.79,0.9 3.34,0.9z"/>
  <path id="4" class="fil3" d="M207.33 62.77c-0.52,0 -0.95,-0.18 -1.31,-0.53 -0.35,-0.36 -0.53,-0.8 -0.53,-1.31l0 -17.57c0,-0.52 0.18,-0.96 0.53,-1.33 0.36,-0.37 0.79,-0.55 1.31,-0.55 0.52,0 0.96,0.18 1.33,0.55 0.37,0.37 0.56,0.81 0.56,1.33l0 1.76c1.91,-2.57 4.05,-3.85 6.42,-3.85l0.21 0c0.52,0 0.95,0.18 1.29,0.53 0.34,0.36 0.51,0.79 0.51,1.31 0,0.52 -0.18,0.94 -0.53,1.27 -0.36,0.33 -0.81,0.49 -1.35,0.49l-0.21 0c-1.31,0 -2.51,0.32 -3.6,0.97 -1.09,0.64 -2.01,1.52 -2.74,2.64l0 12.45c0,0.51 -0.19,0.95 -0.56,1.31 -0.37,0.35 -0.81,0.53 -1.33,0.53z"/>
  <path id="5" class="fil3" d="M229.2 62.97c-1.69,0 -3.3,-0.43 -4.81,-1.29 -1.52,-0.86 -2.75,-2.11 -3.69,-3.76 -0.94,-1.66 -1.41,-3.59 -1.41,-5.8 0,-2.21 0.47,-4.14 1.41,-5.79 0.94,-1.65 2.17,-2.91 3.69,-3.77 1.51,-0.86 3.12,-1.29 4.81,-1.29 2.67,0 5.01,1.04 7,3.11l0 -10.03c0,-0.55 0.18,-1 0.55,-1.35 0.37,-0.36 0.81,-0.53 1.33,-0.53 0.52,0 0.96,0.18 1.31,0.55 0.36,0.37 0.54,0.81 0.54,1.33l0 26.58c0,0.51 -0.18,0.95 -0.54,1.31 -0.35,0.35 -0.79,0.53 -1.31,0.53 -0.52,0 -0.96,-0.18 -1.33,-0.53 -0.37,-0.36 -0.55,-0.8 -0.55,-1.31l0 -1.07c-1.99,2.08 -4.33,3.11 -7,3.11zm0.53 -3.48c1.26,0 2.44,-0.28 3.54,-0.84 1.11,-0.56 2.08,-1.3 2.93,-2.23l0 -8.6c-0.85,-0.93 -1.82,-1.67 -2.93,-2.23 -1.1,-0.56 -2.28,-0.84 -3.54,-0.84 -2.02,0 -3.64,0.64 -4.87,1.93 -1.23,1.28 -1.85,3.09 -1.85,5.44 0,2.35 0.62,4.16 1.85,5.45 1.23,1.28 2.85,1.92 4.87,1.92z"/>
  <path id="6" class="fil3" d="M255.61 62.97c-2.1,0 -3.95,-0.45 -5.53,-1.35 -1.58,-0.9 -2.8,-2.18 -3.66,-3.83 -0.86,-1.65 -1.29,-3.54 -1.29,-5.67 0,-2.13 0.43,-4.02 1.29,-5.67 0.86,-1.65 2.08,-2.93 3.66,-3.83 1.58,-0.9 3.43,-1.35 5.53,-1.35 2.07,0 3.9,0.45 5.49,1.35 1.58,0.9 2.81,2.18 3.68,3.83 0.87,1.65 1.31,3.54 1.31,5.67 0,2.13 -0.44,4.02 -1.31,5.67 -0.87,1.65 -2.1,2.93 -3.68,3.83 -1.59,0.9 -3.42,1.35 -5.49,1.35zm0 -3.4c1.12,0 2.19,-0.26 3.21,-0.77 1.03,-0.52 1.87,-1.34 2.54,-2.46 0.67,-1.12 1,-2.54 1,-4.26 0,-1.69 -0.33,-3.1 -1,-4.22 -0.67,-1.12 -1.51,-1.93 -2.54,-2.43 -1.02,-0.51 -2.09,-0.76 -3.21,-0.76 -1.15,0 -2.23,0.25 -3.26,0.76 -1.02,0.5 -1.86,1.31 -2.52,2.43 -0.65,1.12 -0.98,2.53 -0.98,4.22 0,1.72 0.33,3.14 0.98,4.26 0.66,1.12 1.5,1.94 2.52,2.46 1.03,0.51 2.11,0.77 3.26,0.77z"/>
 </g>
</svg>
